<svg width="28" height="15" viewBox="0 0 28 15" fill="none" xmlns="http://www.w3.org/2000/svg">
<path d="M5.687 12.047C6.155 12.047 6.572 11.969 6.938 11.813C7.31 11.657 7.622 11.438 7.874 11.156C8.126 10.874 8.318 10.532 8.45 10.13C8.588 9.728 8.657 9.278 8.657 8.78V0.985999H11.078V8.78C11.078 9.554 10.952 10.271 10.7 10.931C10.454 11.585 10.097 12.152 9.629 12.632C9.167 13.106 8.603 13.478 7.937 13.748C7.271 14.012 6.521 14.144 5.687 14.144C4.847 14.144 4.094 14.012 3.428 13.748C2.762 13.478 2.195 13.106 1.727 12.632C1.265 12.152 0.908 11.585 0.656 10.931C0.41 10.271 0.287 9.554 0.287 8.78V0.985999H2.708V8.771C2.708 9.269 2.774 9.719 2.906 10.121C3.044 10.523 3.239 10.868 3.491 11.156C3.749 11.438 4.061 11.657 4.427 11.813C4.799 11.969 5.219 12.047 5.687 12.047ZM27.9204 0.985999V14H25.7874V5.594C25.7874 5.258 25.8054 4.895 25.8414 4.505L21.9084 11.894C21.7224 12.248 21.4374 12.425 21.0534 12.425H20.7114C20.3274 12.425 20.0424 12.248 19.8564 11.894L15.8784 4.478C15.8964 4.676 15.9114 4.871 15.9234 5.063C15.9354 5.255 15.9414 5.432 15.9414 5.594V14H13.8084V0.985999H15.6354C15.7434 0.985999 15.8364 0.988999 15.9144 0.995C15.9924 1.001 16.0614 1.016 16.1214 1.04C16.1874 1.064 16.2444 1.103 16.2924 1.157C16.3464 1.211 16.3974 1.283 16.4454 1.373L20.3424 8.6C20.4444 8.792 20.5374 8.99 20.6214 9.194C20.7114 9.398 20.7984 9.608 20.8824 9.824C20.9664 9.602 21.0534 9.389 21.1434 9.185C21.2334 8.975 21.3294 8.774 21.4314 8.582L25.2744 1.373C25.3224 1.283 25.3734 1.211 25.4274 1.157C25.4814 1.103 25.5384 1.064 25.5984 1.04C25.6644 1.016 25.7364 1.001 25.8144 0.995C25.8924 0.988999 25.9854 0.985999 26.0934 0.985999H27.9204Z" fill="black"/>
</svg>
